<svg aria-hidden="true" style="position: absolute; width: 0; height: 0; overflow: hidden;" version="1.1" xmlns="http://www.w3.org/2000/svg" xmlns:xlink="http://www.w3.org/1999/xlink">
<defs>
<symbol id="icon-person-black" viewBox="0 0 32 32">
<path d="M16.012 16.012c2.948 0 5.337-2.39 5.337-5.337s-2.39-5.337-5.337-5.337v0c-2.948 0-5.337 2.39-5.337 5.337s2.39 5.337 5.337 5.337v0zM16.012 18.681c-3.564 0-10.675 1.788-10.675 5.337v1.334c0 0.733 0.6 1.334 1.334 1.334h18.681c0.733 0 1.334-0.601 1.334-1.334v-1.334c0-3.549-7.113-5.337-10.675-5.337z"></path>
</symbol>
<symbol id="icon-phone-black" viewBox="0 0 32 32">
<path d="M24.901 19.79l-3.27-0.374c-0.090-0.011-0.194-0.018-0.3-0.018-0.708 0-1.348 0.287-1.812 0.751l-2.37 2.37c-3.672-1.895-6.59-4.814-8.434-8.378l-0.051-0.108 2.384-2.379c0.464-0.464 0.751-1.104 0.751-1.812 0-0.106-0.006-0.21-0.019-0.312l0.001 0.012-0.374-3.245c-0.155-1.288-1.241-2.277-2.559-2.277-0.001 0-0.002 0-0.003 0h-2.227c-1.455 0-2.665 1.21-2.576 2.663 0.683 10.995 9.478 19.777 20.46 20.46 1.454 0.089 2.665-1.121 2.665-2.576v-2.227c0-0.004 0-0.008 0-0.012 0-1.309-0.985-2.387-2.255-2.534l-0.012-0.001z"></path>
</symbol>
<symbol id="icon-email-black" viewBox="0 0 32 32">
<path d="M26.687 5.337h-21.35c-1.468 0-2.655 1.201-2.655 2.669l-0.014 16.012c0 1.468 1.201 2.669 2.669 2.669h21.35c1.468 0 2.669-1.201 2.669-2.669v-16.012c0-1.468-1.201-2.669-2.669-2.669zM26.154 11.009l-9.433 5.896c-0.201 0.126-0.446 0.201-0.708 0.201s-0.507-0.075-0.714-0.204l0.006 0.003-9.433-5.896c-0.336-0.201-0.557-0.563-0.557-0.976 0-0.626 0.507-1.133 1.133-1.133 0.233 0 0.449 0.070 0.629 0.19l-0.004-0.003 8.94 5.59 8.94-5.592c0.176-0.118 0.392-0.188 0.625-0.188 0.626 0 1.133 0.507 1.133 1.133 0 0.413-0.221 0.775-0.552 0.973l-0.005 0.003z"></path>
</symbol>
</defs>
</svg>
